<svg width="35" height="35" viewBox="0 0 35 35" fill="none" xmlns="http://www.w3.org/2000/svg">
<path d="M17.5 2.03882C25.9951 2.03882 32.9611 9.00484 32.9611 17.5C32.9611 25.9951 25.9951 32.9611 17.5 32.9611C9.00484 32.9611 2.03882 25.9951 2.03882 17.5C2.03882 9.00484 9.00484 2.03882 17.5 2.03882Z" fill="#ECF0F0"/>
<path d="M17.5 0C27.1845 0 35 7.81553 35 17.5C35 27.1845 27.1845 35 17.5 35C7.81553 35 0 27.1845 0 17.5C0 7.81553 7.81553 0 17.5 0ZM32.7913 17.5C32.7913 9.00485 25.8252 2.03884 17.3301 2.03884C8.83495 2.03884 1.86893 9.00485 1.86893 17.5C1.86893 25.9951 8.83495 32.9612 17.3301 32.9612C25.9951 32.7913 32.7913 25.9951 32.7913 17.5Z" fill="#1D426A"/>
<path d="M7.13594 17.5C7.13594 16.4806 6.28642 15.6311 5.267 15.6311C4.24759 15.6311 3.39807 16.4806 3.39807 17.5C3.39807 18.5195 4.24759 19.369 5.267 19.369C6.28642 19.369 7.13594 18.5195 7.13594 17.5Z" fill="#A0D5ED"/>
<path d="M29.7331 15.6311C28.7137 15.6311 27.8641 16.4806 27.8641 17.5C27.8641 18.5195 28.7137 19.369 29.7331 19.369C30.7525 19.369 31.602 18.5195 31.602 17.5C31.4321 16.4806 30.7525 15.6311 29.7331 15.6311Z" fill="#A0D5ED"/>
<path d="M17.4999 27.864C16.4805 27.864 15.631 28.7135 15.631 29.7329C15.631 30.7524 16.4805 31.6019 17.4999 31.6019C18.5193 31.6019 19.3688 30.7524 19.3688 29.7329C19.3688 28.7135 18.5193 27.864 17.4999 27.864Z" fill="#A0D5ED"/>
<path d="M17.4999 7.13581C18.5193 7.13581 19.3688 6.2863 19.3688 5.26688C19.3688 4.24746 18.5193 3.39795 17.4999 3.39795C16.4805 3.39795 15.631 4.24746 15.631 5.26688C15.631 6.2863 16.4805 7.13581 17.4999 7.13581Z" fill="#A0D5ED"/>
<path d="M18.6893 15.1213C19.199 15.4611 19.7087 16.1407 19.7087 16.8203L22.9369 13.7621L26.335 10.5339L22.2573 12.9126L18.6893 15.1213Z" fill="#1D426A"/>
<path d="M16.3106 14.9514L13.5922 13.7621L10.5339 12.4028L12.7427 14.7815L14.7815 16.9902C14.7815 16.1407 15.4611 15.2912 16.3106 14.9514Z" fill="#1D426A"/>
<path d="M18.6893 15.1213C18.1796 14.9514 17.8397 14.7815 17.33 14.7815C16.9902 14.7815 16.6504 14.7815 16.3106 14.9514C15.4611 15.2912 14.7815 16.1407 14.7815 17.1601C14.7815 18.5194 15.9708 19.7087 17.33 19.7087C18.0096 19.7087 18.6893 19.3689 19.199 18.8592C19.5388 18.3495 19.8786 17.8397 19.8786 17.1601C19.8786 16.9902 19.8786 16.8203 19.8786 16.6504C19.7087 16.1407 19.199 15.4611 18.6893 15.1213ZM17.33 18.8592C16.4805 18.8592 15.8009 18.1796 15.8009 17.33C15.8009 16.4805 16.4805 15.8009 17.33 15.8009C18.1796 15.8009 18.8592 16.4805 18.8592 17.33C18.8592 18.1796 18.1796 18.8592 17.33 18.8592Z" fill="#1D426A"/>
</svg>
