<svg width="24" height="26" viewBox="0 0 24 26" fill="none" xmlns="http://www.w3.org/2000/svg">
<path d="M23.9481 3.08475C23.8042 2.0565 23.2285 1.32203 22.5088 0.734463C21.7892 0.293785 21.0696 0 20.35 0C19.1986 0 18.0472 0.587571 17.3276 1.61582L8.26036 14.8362L6.82112 11.4576C6.24542 10.1356 4.95011 9.25424 3.51087 9.25424C2.93517 9.25424 2.5034 9.40113 2.07163 9.54802C1.20808 9.9887 0.488461 10.7232 0.200612 11.6045C-0.0872357 12.4859 -0.0872357 13.5141 0.344537 14.3955L4.23049 23.7966C4.80618 24.9718 5.95758 25.8531 7.25289 26C7.39682 26 7.54074 26 7.54074 26C8.69213 26 9.84353 25.4124 10.5631 24.3842L23.3724 5.87571C23.9481 4.99435 24.092 4.11299 23.9481 3.08475Z" fill="#1D426A"/>
</svg>
