<svg width="37" height="27" viewBox="0 0 37 27" fill="none" xmlns="http://www.w3.org/2000/svg">
<path d="M5.48266 15.2296C5.68573 15.2296 5.68573 15.2296 5.48266 15.2296C6.09185 15.0266 6.70103 14.8235 7.10716 14.8235H7.31022C8.32553 14.2143 9.5439 13.6051 10.5592 12.9959C10.7623 12.7929 10.7623 12.1837 10.7623 11.7776C10.5592 11.3715 10.3561 10.7623 10.1531 10.3561C9.95002 10.1531 9.74696 9.95002 9.74696 9.74696C8.93471 9.34084 8.93471 8.12247 8.73165 7.51328C8.73165 7.31022 8.73165 7.10716 8.73165 6.9041C8.73165 6.9041 8.73165 6.9041 8.73165 6.70103C8.73165 6.49797 8.73165 5.88879 9.13777 5.48266C9.13777 5.2796 9.13777 4.87348 9.13777 4.67042C8.73165 2.6398 8.93471 1.42143 9.74696 0.609185L9.95002 0.406123C9.34083 0 8.93471 0 8.32553 0C6.70103 0 5.2796 0.609185 5.07654 1.42143C5.07654 1.42143 2.84286 6.29491 3.65511 7.71634C3.85817 8.12247 5.48266 8.12247 5.88879 7.71634L6.09185 7.51328C6.09185 7.71634 6.29491 7.9194 6.29491 8.12247C6.29491 8.73165 6.29491 9.34083 6.09185 9.95002C5.48266 10.9653 4.67042 11.3715 3.24899 11.5745C2.84286 11.5745 2.6398 11.5745 2.23368 11.7776C1.82755 11.7776 1.42143 11.9806 1.21837 12.3868C0.203062 13.4021 0 14.8235 0 17.0572C0 17.4633 0 18.0725 0 18.4786H2.6398C2.84286 17.6664 3.24899 17.0572 3.85817 16.6511C4.26429 16.0419 4.87348 15.6357 5.48266 15.2296Z" fill="#A0D5ED"/>
<path d="M35.7388 23.3521C35.7388 20.7123 35.5357 18.6817 34.3174 17.2603C33.9112 16.8541 33.5051 16.6511 33.099 16.448C32.4898 16.448 32.0837 16.2449 31.4745 16.448C29.6469 16.448 28.6316 15.6358 27.8194 14.4174C27.6163 13.6051 27.4133 12.996 27.6163 11.9807C28.0224 11.3715 28.2255 10.7623 28.4286 10.1531H28.6316C28.6316 10.3562 28.6316 10.7623 28.6316 10.7623C28.6316 10.9653 28.6316 11.9807 29.0378 11.9807C29.4439 11.9807 29.4439 10.9653 29.4439 10.7623C29.4439 10.7623 29.4439 9.95004 29.2408 9.74698C29.4439 9.54392 29.4439 9.13779 29.4439 8.52861C29.4439 8.32555 29.4439 8.12248 29.4439 7.91942C29.4439 7.71636 29.4439 7.5133 29.4439 7.5133H29.2408C29.2408 7.10718 29.2408 6.29493 29.2408 5.88881C29.2408 5.88881 29.2408 5.27962 29.0378 5.07656C28.8347 4.06125 28.2255 3.45207 27.2102 3.04594C27.0071 3.04594 26.8041 2.84288 26.398 2.84288C26.601 2.63982 26.601 2.63982 26.601 2.43676C26.601 2.03064 26.1949 1.62451 25.5857 1.62451H25.3826H25.1796C24.5704 1.62451 24.1643 2.03064 24.1643 2.43676C24.1643 2.63982 24.1643 2.84288 24.3673 2.84288C24.1643 2.84288 23.7582 3.04594 23.5551 3.04594C22.5398 3.45207 21.9306 4.06125 21.7275 5.07656C21.7275 5.27962 21.5245 5.88881 21.5245 5.88881C21.5245 6.29493 21.5245 7.10718 21.5245 7.5133C21.3214 7.5133 21.3214 7.5133 21.3214 7.5133C21.3214 7.5133 21.3214 7.71636 21.3214 7.91942C21.3214 8.12248 21.3214 8.32555 21.3214 8.52861C21.3214 9.13779 21.3214 9.74698 21.7275 9.74698C21.5245 9.95004 21.5245 10.7623 21.5245 10.7623C21.5245 10.9653 21.5245 11.9807 21.9306 11.9807C22.3367 11.9807 22.3367 10.9653 22.3367 10.7623C22.3367 10.7623 22.3367 10.3562 22.3367 10.1531C22.3367 10.1531 22.3367 10.1531 22.5398 10.1531C22.7428 10.9653 22.9459 11.5745 23.352 11.9807C23.352 12.7929 23.352 13.6051 23.149 14.4174C22.9459 14.6205 22.9459 14.8235 22.7428 15.0266C23.149 15.0266 23.7581 15.0266 24.1643 15.2296H24.3673C25.1796 15.6358 25.5857 15.8388 26.1949 16.448C27.8194 18.0725 28.2255 20.7123 28.2255 23.9613C28.2255 24.3674 28.2255 24.7735 28.2255 25.1797H36.348C35.7388 24.7735 35.7388 24.1644 35.7388 23.3521ZM29.0378 9.74698C29.2408 9.74698 29.2408 10.1531 29.2408 10.5592C29.2408 11.1684 29.2408 11.3715 29.0378 11.5745C29.0378 11.5745 28.8347 11.1684 28.8347 10.5592C28.8347 10.1531 28.8347 9.95004 29.0378 9.74698ZM21.7275 11.7776C21.7275 11.7776 21.5245 11.3715 21.5245 10.7623C21.5245 10.3562 21.5245 9.95004 21.7275 9.74698C21.7275 9.95004 21.7275 10.1531 21.7275 10.5592C21.9306 11.3715 21.7275 11.5745 21.7275 11.7776Z" fill="#A0D5ED"/>
<path d="M26.3981 24.1642C26.3981 21.1183 26.195 18.8846 24.7736 17.4632C24.3675 17.0571 23.9614 16.854 23.3522 16.6509H23.1491C22.9461 16.4479 22.5399 16.2448 22.1338 16.2448C21.9308 16.2448 21.9308 16.2448 21.7277 16.2448C21.5246 16.0418 21.3216 16.0418 20.9154 15.8387C19.6971 15.2295 18.6818 14.6203 17.6665 13.8081C17.4634 13.1989 17.2603 12.3866 17.4634 11.3713C17.8695 10.7622 18.0726 10.153 18.2756 9.34072C18.4787 9.34072 18.6818 9.34072 18.8848 8.9346C19.291 8.73153 19.291 8.12235 19.291 7.3101C19.291 7.10704 19.291 6.90398 19.291 6.49786C19.291 6.29479 19.291 6.09173 19.291 6.09173C19.291 6.09173 19.291 6.09173 19.0879 6.09173H18.8848C18.8848 5.68561 18.8848 5.07642 18.8848 5.07642C18.8848 4.87336 18.8848 4.46724 18.8848 4.26418C19.0879 3.45193 19.0879 2.63968 19.0879 2.0305C19.291 2.23356 19.494 2.63968 19.6971 3.04581C19.6971 1.82744 19.0879 1.01519 18.2756 0.812129C18.2756 0.812129 17.8695 0.812129 17.6665 0.609068C17.8695 0.406006 18.0726 0.406006 18.0726 0.406006C18.0726 0.406006 18.0726 0.406006 17.8695 0.406006C17.6665 0.406006 17.2603 0.406006 17.0573 0.609068C16.4481 0.406006 15.6358 0.406006 15.0267 0.406006H14.8236H14.6205C13.4022 0.406006 12.1838 0.609068 11.3715 1.01519C10.9654 1.01519 10.7624 1.21825 10.5593 1.21825C10.1532 2.0305 10.1532 3.24887 10.3562 4.46724C10.3562 4.87336 10.3562 5.68561 10.3562 6.29479H10.1532C10.1532 6.29479 10.1532 6.29479 9.95012 6.29479C9.95012 6.29479 9.95012 6.49786 9.95012 6.70092C9.95012 6.90398 9.95012 7.3101 9.95012 7.51316C9.95012 8.12235 9.95012 8.52847 10.1532 8.73153C10.1532 8.9346 10.3562 8.9346 10.3562 8.9346C10.5593 9.34072 10.7624 9.34072 10.9654 9.34072C11.1685 10.153 11.3715 10.7622 11.7777 11.1683C11.7777 11.1683 11.7777 11.3713 11.9807 11.3713C11.9807 12.3866 11.9807 13.1989 11.7777 14.0111C10.5593 14.8234 9.13787 15.6356 7.71644 16.2448C7.51338 16.2448 7.51338 16.2448 7.31031 16.2448C6.90419 16.2448 6.49807 16.2448 6.29501 16.4479H6.09194C5.68582 16.6509 5.07664 17.0571 4.67051 17.4632C4.46745 17.6662 4.26439 18.0724 4.06133 18.4785C3.24908 19.8999 3.24908 21.7275 3.24908 24.1642C3.24908 24.9765 3.24908 25.5856 3.04602 26.1948H26.6012C26.6012 25.9918 26.6012 25.5856 26.6012 25.1795C26.3981 24.9765 26.3981 24.5703 26.3981 24.1642Z" fill="#1D426A"/>
</svg>
