<svg width="32" height="32" viewBox="0 0 32 32" fill="none" xmlns="http://www.w3.org/2000/svg">
<path d="M1.08936 30.9106C2.36028 32.1816 4.53901 32.1816 5.99149 30.9106L16.3404 20.5617C20.3348 22.5589 25.6 22.0142 28.8681 18.5645C33.044 14.3887 33.044 7.48936 28.8681 3.13191C24.6922 -1.04397 17.7929 -1.04397 13.4355 3.13191C9.98582 6.4 9.44113 11.6652 11.4383 15.6596L1.08936 26.0085C-0.363121 27.461 -0.363121 29.6397 1.08936 30.9106ZM15.4326 4.94752C18.7007 1.67943 23.7844 1.67943 27.0525 4.94752C30.3206 8.2156 30.3206 13.2993 27.0525 16.5674C23.7844 19.8355 18.7007 19.8355 15.4326 16.5674C12.1645 13.2993 12.1645 8.2156 15.4326 4.94752Z" fill="white"/>
<path d="M16.8851 8.57886H25.2369C26.1447 8.57886 26.6894 9.3051 26.6894 10.0313V10.9391C26.6894 11.8469 25.9631 12.3916 25.2369 12.3916H16.8851C15.9773 12.5732 15.4326 11.8469 15.4326 11.1207V10.2129C15.4326 9.3051 15.9773 8.57886 16.8851 8.57886Z" fill="#A0D5ED"/>
</svg>
