<svg width="158" height="161" viewBox="0 0 158 161" fill="none" xmlns="http://www.w3.org/2000/svg">
<path d="M0.225952 91.4351C0.48838 89.8605 0.750806 88.286 1.27566 87.2363L5.4745 88.0235C4.94965 89.0732 4.68722 90.3854 4.42479 91.6975C4.16236 93.0097 4.42479 94.3218 4.68722 95.6339C4.94965 96.9461 5.4745 97.9958 5.99936 98.5206C6.52421 99.0455 7.3115 99.3079 7.83635 99.3079C8.36121 99.3079 8.62364 98.7831 8.88606 98.5206C9.14849 97.9958 9.41092 97.4709 9.41092 96.6836C9.41092 95.8964 9.41092 95.1091 9.67334 94.0594C9.67334 92.2224 9.93577 90.9102 9.93577 89.8605C10.1982 88.8108 10.4606 87.7611 11.2479 86.7114C12.0352 85.6617 13.0849 85.1368 14.397 84.8744C15.7092 84.612 16.7589 84.612 18.071 85.1368C19.3832 85.6617 20.1704 86.449 21.2202 87.7611C22.2699 89.0732 22.7947 90.6478 23.0572 92.4848C23.3196 93.7969 23.582 95.3715 23.3196 96.6836C23.3196 97.9958 23.0571 99.3079 22.5323 100.358L18.3335 99.5704C19.1207 97.4709 19.1207 95.1091 18.8583 93.2721C18.5959 91.9599 18.071 90.9102 17.5462 90.3854C17.0213 89.8605 16.234 89.5981 15.4468 89.8605C14.6595 90.123 14.1346 90.3854 14.1346 91.4351C13.8722 92.2224 13.8722 93.5345 13.8722 95.1091C13.8722 96.9461 13.6098 98.2582 13.6098 99.3079C13.3473 100.358 13.0849 101.407 12.2976 102.457C11.5103 103.507 10.4606 104.032 9.14849 104.294C7.83635 104.556 6.78664 104.556 5.4745 104.032C4.42479 103.507 3.37508 102.719 2.32537 101.407C1.53809 100.095 0.750806 98.5206 0.488378 96.6836C0.225951 94.5842 0.225952 93.0097 0.225952 91.4351Z" fill="#1D426A"/>
<path d="M41.1645 124.764L24.3692 138.935L21.22 134.998L28.0432 129.225L21.7449 121.614L14.9218 127.388L11.2478 123.451L28.0432 109.28L31.1923 113.217L24.6316 118.728L30.9299 126.338L37.4906 120.827L41.1645 124.764Z" fill="#1D426A"/>
<path d="M57.435 152.056L47.9876 148.382L44.5761 152.056L39.59 150.219L56.3853 132.899L61.109 134.736L62.6836 158.879L57.6975 157.042L57.435 152.056ZM57.435 147.857L57.1726 138.672L50.8743 145.495L57.435 147.857Z" fill="#1D426A"/>
<path d="M88.139 150.481L85.7772 153.893L86.5644 159.404L81.5783 160.191L78.1667 138.41L83.1529 137.622L84.7274 147.857L92.8627 136.31L98.3737 135.523L90.7633 146.283L102.048 157.042L96.2743 157.829L88.139 150.481Z" fill="#1D426A"/>
<path d="M121.73 119.252L135.377 136.573L131.44 139.722L125.929 132.636L118.056 138.672L123.567 145.758L119.631 148.907L105.985 131.586L109.921 128.437L115.17 135.26L123.042 129.225L117.794 122.401L121.73 119.252Z" fill="#1D426A"/>
<path d="M139.05 91.6976L138 98.7832L133.802 98.2583L136.688 79.3635L140.887 79.8884L139.837 86.7115L157.42 89.3358L156.633 94.3219L139.05 91.6976Z" fill="#1D426A"/>
<path d="M152.434 50.4965L147.972 56.5323V56.7947L149.285 60.9936L155.058 59.1566L156.633 63.8803L135.638 70.7034L132.752 61.5184C132.227 59.6814 131.964 57.8444 131.964 56.2699C131.964 54.6953 132.752 53.3832 133.539 52.3335C134.326 51.2838 135.638 50.4965 137.213 49.9716C138.787 49.4468 140.1 49.4468 141.674 49.7092C143.249 49.9716 144.298 50.7589 145.348 52.071L150.597 45.2479L152.434 50.4965ZM136.95 57.0572C136.688 58.1069 136.688 59.1566 137.213 60.7312L138.525 64.6676L145.873 62.3057L144.561 58.3693C144.036 56.7947 143.511 56.0075 142.461 55.4826C141.674 54.9577 140.624 54.9577 139.312 55.2202C138 55.4826 137.213 56.0075 136.95 57.0572Z" fill="#1D426A"/>
<path d="M125.667 22.1543L133.277 29.2398L138.001 27.1404L141.937 30.8144L119.631 40.2618L115.957 36.8502L123.83 14.019L127.766 17.693L125.667 22.1543ZM124.355 26.0907L121.206 34.7508L129.341 30.8144L124.355 26.0907Z" fill="#1D426A"/>
<path d="M81.8412 21.892L96.7996 2.99719L101.786 4.30933L105.197 28.1902L99.9487 26.8781L97.5868 9.82031L86.8273 23.2041L81.8412 21.892Z" fill="#1D426A"/>
<path d="M53.7615 8.50798L52.9742 4.57157L69.7696 0.897583L74.4933 22.4166L58.2228 25.8282L57.4355 21.8918L68.7199 19.5299L67.4078 15.0687L57.4355 17.1681L56.6482 13.2317L66.6205 11.1323L65.5708 6.14613L53.7615 8.50798Z" fill="#1D426A"/>
<path d="M49.0377 30.8145L45.1013 33.9636L34.0793 19.7925L25.4192 26.6156L22.7949 23.4665L35.6539 13.4943L49.0377 30.8145Z" fill="#1D426A"/>
</svg>
